Coordinates
version=1
nRows=24
nColumns=38
inDegrees=no

Units are S.I. units (second, meters, Newtons, ...)
If the header above contains a line with 'inDegrees', this indicates whether rotational values are in degrees (yes) or radians (no).

endheader
time	pelvis_tilt	pelvis_list	pelvis_rotation	pelvis_tx	pelvis_ty	pelvis_tz	hip_flexion_r	hip_adduction_r	hip_rotation_r	knee_angle_r	ankle_angle_r	subtalar_angle_r	mtp_angle_r	hip_flexion_l	hip_adduction_l	hip_rotation_l	knee_angle_l	ankle_angle_l	subtalar_angle_l	mtp_angle_l	lumbar_extension	lumbar_bending	lumbar_rotation	arm_flex_r	arm_add_r	arm_rot_r	elbow_flex_r	pro_sup_r	wrist_flex_r	wrist_dev_r	arm_flex_l	arm_add_l	arm_rot_l	elbow_flex_l	pro_sup_l	wrist_flex_l	wrist_dev_l
5	0.377514	1.45599	1.13719	0.685482	1.91617	0.927708	0.352312	0.0027598	0.161446	0.613494	-0.19408	0	0	0.23998	-0.0459689	-0.190063	0.415341	-0.191523	0	0	0.0279466	0.061996	0.138573	0.325941	-0.410708	-0.0188567	1.48916	1.5708	0	0	0.634218	-0.26846	0.537596	1.27039	1.5708	0	0
5.01	0.338153	1.4553	1.176	0.686573	1.91768	0.927142	0.358456	0.0109654	0.206184	0.636114	-0.187118	0	0	0.239884	-0.0430018	-0.191869	0.414792	-0.190104	0	0	0.031535	0.0563243	0.140107	0.323907	-0.4083	-0.0197566	1.48982	1.5708	0	0	0.632969	-0.2683	0.534761	1.27073	1.5708	0	0
5.02	0.343495	1.44916	1.16862	0.687571	1.9191	0.92748	0.349088	0.0054042	0.170811	0.596544	-0.195491	0	0	0.242536	-0.0472117	-0.1924	0.412062	-0.190731	0	0	0.0375159	0.0605772	0.143323	0.320712	-0.407558	-0.0207893	1.49091	1.5708	0	0	0.62949	-0.266391	0.531842	1.26866	1.5708	0	0
5.03	0.299171	1.45202	1.21463	0.688628	1.92097	0.926821	0.352641	0.00883833	0.205728	0.623075	-0.185591	0	0	0.23865	-0.041784	-0.193728	0.410864	-0.189143	0	0	0.0392783	0.0511543	0.143273	0.317614	-0.405145	-0.0232493	1.49389	1.5708	0	0	0.629287	-0.267089	0.531016	1.26929	1.5708	0	0
5.04	0.31043	1.44742	1.20125	0.689674	1.92232	0.927287	0.342725	0.00336807	0.169223	0.586978	-0.190814	0	0	0.239161	-0.0457525	-0.192502	0.406731	-0.189929	0	0	0.0429923	0.0554071	0.147	0.314359	-0.404386	-0.0249878	1.49597	1.5708	0	0	0.626377	-0.265384	0.52853	1.2679	1.5708	0	0
5.05	0.271664	1.45123	1.24112	0.690759	1.92401	0.926692	0.34384	0.00671983	0.204033	0.61059	-0.180734	0	0	0.233706	-0.0404218	-0.192111	0.404758	-0.188141	0	0	0.0418616	0.0473784	0.148567	0.310749	-0.401468	-0.0286706	1.49731	1.5708	0	0	0.626919	-0.265777	0.527802	1.26947	1.5708	0	0
5.06	0.255524	1.45057	1.25613	0.691926	1.92543	0.926605	0.340735	0.00577635	0.203503	0.606609	-0.176901	0	0	0.231721	-0.0397518	-0.191551	0.402143	-0.187545	0	0	0.0436161	0.0452374	0.151168	0.307805	-0.399782	-0.0302209	1.49985	1.5708	0	0	0.625546	-0.266079	0.526348	1.26989	1.5708	0	0
5.07	0.243233	1.45058	1.26711	0.693097	1.92685	0.926635	0.335854	0.00505892	0.203654	0.600025	-0.172414	0	0	0.227893	-0.0388425	-0.189949	0.397343	-0.186926	0	0	0.0451451	0.0435314	0.153212	0.305636	-0.39774	-0.0305265	1.50111	1.5708	0	0	0.623563	-0.26659	0.524196	1.26971	1.5708	0	0
5.08	0.229851	1.45042	1.27898	0.694317	1.92824	0.926684	0.331457	0.00427814	0.204039	0.593826	-0.169571	0	0	0.223767	-0.0377446	-0.188405	0.391689	-0.186654	0	0	0.0473439	0.0416477	0.154605	0.304168	-0.395681	-0.0297244	1.50349	1.5708	0	0	0.621017	-0.267979	0.521856	1.26975	1.5708	0	0
5.09	0.219373	1.4509	1.28765	0.695518	1.92958	0.92678	0.326438	0.00360664	0.204929	0.587421	-0.167118	0	0	0.217793	-0.0363559	-0.185383	0.383498	-0.1867	0	0	0.0482945	0.0400444	0.155297	0.303799	-0.393339	-0.0269685	1.50338	1.5708	0	0	0.617406	-0.269976	0.51758	1.27161	1.5708	0	0
5.1	0.210386	1.45171	1.29473	0.696673	1.93087	0.926875	0.321437	0.0028915	0.205458	0.58179	-0.165408	0	0	0.211146	-0.0348931	-0.18214	0.374741	-0.186983	0	0	0.0482304	0.039131	0.156265	0.303441	-0.391242	-0.0237607	1.50207	1.5708	0	0	0.613562	-0.272083	0.512882	1.27452	1.5708	0	0
5.11	0.199574	1.45181	1.30359	0.697861	1.93217	0.926932	0.317504	0.00225442	0.20565	0.576886	-0.164117	0	0	0.205413	-0.0335693	-0.179242	0.366452	-0.187239	0	0	0.0492496	0.0377308	0.157267	0.302438	-0.389255	-0.0215038	1.50316	1.5708	0	0	0.60956	-0.274316	0.508627	1.27754	1.5708	0	0
5.12	0.18999	1.45207	1.31143	0.699052	1.93345	0.927013	0.313365	0.00185123	0.205619	0.572193	-0.162658	0	0	0.199201	-0.0322272	-0.175145	0.35729	-0.187674	0	0	0.0500976	0.0364418	0.157948	0.301503	-0.387163	-0.0191933	1.50441	1.5708	0	0	0.605238	-0.276649	0.504098	1.28083	1.5708	0	0
5.13	0.188892	1.46487	1.31147	0.700696	1.93423	0.927355	0.297691	-0.000194885	0.204814	0.571842	-0.15459	0	0	0.179354	-0.0292991	-0.170534	0.346453	-0.187745	0	0	0.0352444	0.0229148	0.158729	0.302882	-0.385092	-0.0202862	1.50555	1.5708	0	0	0.623481	-0.295909	0.593995	1.22401	1.5708	0	0
5.14	0.181161	1.46449	1.31767	0.701869	1.93547	0.927391	0.29471	-5.30462e-05	0.205058	0.568281	-0.153148	0	0	0.174642	-0.0291735	-0.167382	0.33936	-0.187859	0	0	0.0373543	0.0222455	0.160646	0.30001	-0.383428	-0.0196237	1.50735	1.5708	0	0	0.621838	-0.297553	0.593643	1.22369	1.5708	0	0
5.15	0.176339	1.46494	1.32117	0.702956	1.93665	0.92747	0.290973	-9.22478e-05	0.205235	0.564654	-0.151317	0	0	0.168676	-0.0287694	-0.163649	0.330974	-0.188655	0	0	0.0385829	0.0223381	0.161259	0.298884	-0.381769	-0.0160818	1.50589	1.5708	0	0	0.61846	-0.30021	0.591399	1.22504	1.5708	0	0
5.16	0.166826	1.46441	1.3296	0.704044	1.93783	0.927493	0.288714	-0.000240352	0.205256	0.562021	-0.150122	0	0	0.164505	-0.0282416	-0.161178	0.3241	-0.189441	0	0	0.0416332	0.0216994	0.160522	0.298	-0.378962	-0.0136523	1.50776	1.5708	0	0	0.613938	-0.30351	0.588058	1.22694	1.5708	0	0
5.17	0.160238	1.4643	1.33523	0.705047	1.93896	0.927495	0.286007	-0.000238781	0.205219	0.55939	-0.1484	0	0	0.159271	-0.0275048	-0.157655	0.315804	-0.190305	0	0	0.0428587	0.0217262	0.160145	0.297107	-0.377589	-0.00965601	1.50711	1.5708	0	0	0.608922	-0.306516	0.583073	1.23093	1.5708	0	0
5.18	0.156324	1.46398	1.33845	0.706066	1.94007	0.927481	0.283658	0.000147665	0.205303	0.557286	-0.147084	0	0	0.154675	-0.0272471	-0.154835	0.308721	-0.190806	0	0	0.044438	0.0216533	0.159512	0.296044	-0.376071	-0.00690424	1.50845	1.5708	0	0	0.603954	-0.309867	0.578549	1.23528	1.5708	0	0
5.19	0.156697	1.46404	1.33764	0.707065	1.94114	0.927485	0.280875	0.0008511	0.20545	0.555059	-0.145622	0	0	0.149534	-0.0272267	-0.15157	0.301075	-0.191395	0	0	0.045586	0.0220194	0.158545	0.295428	-0.374424	-0.00430719	1.50942	1.5708	0	0	0.598746	-0.313227	0.573609	1.23993	1.5708	0	0
5.2	0.162469	1.46476	1.33164	0.708018	1.94212	0.927519	0.277472	0.0019427	0.205305	0.55306	-0.144221	0	0	0.143936	-0.027782	-0.148472	0.29405	-0.191905	0	0	0.0461407	0.0229713	0.157292	0.295183	-0.372775	-0.00126501	1.51007	1.5708	0	0	0.593734	-0.316463	0.568794	1.24415	1.5708	0	0
5.21	0.160684	1.46516	1.33299	0.708918	1.94301	0.927495	0.274956	0.00233093	0.20509	0.551387	-0.142603	0	0	0.139227	-0.0275156	-0.145232	0.28744	-0.192359	0	0	0.0472874	0.0229605	0.155959	0.294716	-0.370564	0.000791047	1.51312	1.5708	0	0	0.588325	-0.319824	0.563507	1.24885	1.5708	0	0
5.22	0.160564	1.46563	1.33256	0.709739	1.94387	0.927401	0.272738	0.00264482	0.203833	0.550457	-0.140595	0	0	0.134375	-0.0273009	-0.141601	0.280571	-0.192816	0	0	0.04824	0.0234964	0.153342	0.296126	-0.369444	0.00810647	1.51064	1.5708	0	0	0.580647	-0.323747	0.555069	1.25565	1.5708	0	0
5.23	0.163526	1.46634	1.32899	0.710529	1.94467	0.927347	0.270684	0.003362	0.20343	0.550233	-0.139176	0	0	0.130058	-0.0276887	-0.139593	0.275548	-0.1932	0	0	0.0501684	0.0248765	0.146436	0.302305	-0.366509	0.0209955	1.50511	1.5708	0	0	0.56867	-0.330042	0.541554	1.26408	1.5708	0	0
